<svg width="40" height="40" viewBox="0 0 40 40" fill="none" xmlns="http://www.w3.org/2000/svg">
<path d="M8.3543 14.3084C7.4743 16.0418 7.0343 18.0285 7.0343 20.2685C7.0343 22.5351 7.4743 24.5485 8.3543 26.3085C9.26097 28.0418 10.4743 29.3885 11.9943 30.3485C13.541 31.3085 15.2476 31.7885 17.1143 31.7885C18.7676 31.7885 20.221 31.4551 21.4743 30.7885C22.7543 30.0951 23.7543 29.2285 24.4743 28.1884V39.4976C23.0358 39.8264 21.5382 40 20 40C8.9543 40 0 31.0457 0 20C0 8.9543 8.9543 0 20 0C21.5382 0 23.0358 0.173641 24.4743 0.502391V12.4285C23.7276 11.4151 22.7276 10.5751 21.4743 9.90845C20.2476 9.24178 18.8076 8.90845 17.1543 8.90845C15.261 8.90845 13.541 9.37512 11.9943 10.3085C10.4743 11.2418 9.26097 12.5751 8.3543 14.3084Z" fill="url(#paint0_linear_272_1810)"/>
<path d="M30.1143 2.74227V11.3711V15.6856V17.8428L28.8889 20L30.1143 22.1572V24.3144V28.6289V37.2577C36.0292 33.7837 40 27.3555 40 20C40 12.6445 36.0292 6.21634 30.1143 2.74227Z" fill="url(#paint1_linear_272_1810)"/>
<path d="M23.6743 16.8685C24.2076 17.8284 24.4743 18.9885 24.4743 20.3485C24.4743 21.7085 24.2076 22.8818 23.6743 23.8685C23.141 24.8285 22.421 25.5751 21.5143 26.1085C20.6076 26.6151 19.6343 26.8685 18.5943 26.8685C17.581 26.8685 16.621 26.6018 15.7143 26.0685C14.8343 25.5351 14.1143 24.7751 13.5543 23.7885C13.021 22.7751 12.7543 21.6018 12.7543 20.2685C12.7543 18.9351 13.021 17.7885 13.5543 16.8285C14.1143 15.8418 14.8343 15.0951 15.7143 14.5885C16.5943 14.0818 17.5543 13.8285 18.5943 13.8285C19.6343 13.8285 20.6076 14.0951 21.5143 14.6285C22.421 15.1351 23.141 15.8818 23.6743 16.8685Z" fill="url(#paint2_linear_272_1810)"/>
<defs>
<linearGradient id="paint0_linear_272_1810" x1="0" y1="0" x2="40" y2="40" gradientUnits="userSpaceOnUse">
<stop stop-color="#1B6DFF"/>
<stop offset="0.647045" stop-color="#134DB5"/>
<stop offset="1" stop-color="#669DFF"/>
</linearGradient>
<linearGradient id="paint1_linear_272_1810" x1="0" y1="0" x2="40" y2="40" gradientUnits="userSpaceOnUse">
<stop stop-color="#1B6DFF"/>
<stop offset="0.647045" stop-color="#134DB5"/>
<stop offset="1" stop-color="#669DFF"/>
</linearGradient>
<linearGradient id="paint2_linear_272_1810" x1="0" y1="0" x2="40" y2="40" gradientUnits="userSpaceOnUse">
<stop stop-color="#1B6DFF"/>
<stop offset="0.647045" stop-color="#134DB5"/>
<stop offset="1" stop-color="#669DFF"/>
</linearGradient>
</defs>
</svg>
