<svg xmlns="http://www.w3.org/2000/svg" width="28" height="28" viewBox="0 0 28 28" fill="none">
  <path fill-rule="evenodd" clip-rule="evenodd" d="M14 27.3332C21.3638 27.3332 27.3333 21.3636 27.3333 13.9998C27.3333 6.63604 21.3638 0.666504 14 0.666504C6.63616 0.666504 0.666626 6.63604 0.666626 13.9998C0.666626 21.3636 6.63616 27.3332 14 27.3332ZM11.9595 9.29273L7.95952 13.2927C7.56899 13.6833 7.56899 14.3164 7.95952 14.7069L11.9595 18.7069C12.35 19.0975 12.9832 19.0975 13.3737 18.7069C13.7643 18.3164 13.7643 17.6833 13.3737 17.2927L11.0808 14.9998H19.3333C19.8856 14.9998 20.3333 14.5521 20.3333 13.9998C20.3333 13.4476 19.8856 12.9998 19.3333 12.9998H11.0808L13.3737 10.7069C13.7643 10.3164 13.7643 9.68325 13.3737 9.29273C12.9832 8.90221 12.35 8.90221 11.9595 9.29273Z" fill="#1B6DFF"/>
</svg>