<svg width="56" height="56" viewBox="0 0 56 56" fill="currentColor" xmlns="http://www.w3.org/2000/svg">
  <path fill-rule="evenodd" clip-rule="evenodd" d="M28.5833 7.24299V14C28.5833 20.1212 33.5455 25.0833 39.6666 25.0833H46.4237C46.5839 25.7716 46.6666 26.4812 46.6666 27.1993V39.6667C46.6666 44.8213 42.488 49 37.3333 49H18.6666C13.512 49 9.33331 44.8213 9.33331 39.6667V16.3333C9.33331 11.1787 13.512 7 18.6666 7H26.4673C27.1854 7 27.895 7.08276 28.5833 7.24299ZM32.0833 8.87864V14C32.0833 18.1882 35.4785 21.5833 39.6666 21.5833H44.788C44.5278 21.2379 44.2423 20.909 43.933 20.5997L33.067 9.73367C32.7576 9.4243 32.4288 9.13889 32.0833 8.87864ZM16.9166 28C16.9166 27.0335 17.7001 26.25 18.6666 26.25H28C28.9665 26.25 29.75 27.0335 29.75 28C29.75 28.9665 28.9665 29.75 28 29.75H18.6666C17.7001 29.75 16.9166 28.9665 16.9166 28ZM18.6666 35.5833C17.7001 35.5833 16.9166 36.3668 16.9166 37.3333C16.9166 38.2998 17.7001 39.0833 18.6666 39.0833H37.3333C38.2998 39.0833 39.0833 38.2998 39.0833 37.3333C39.0833 36.3668 38.2998 35.5833 37.3333 35.5833H18.6666Z" />
</svg>
