<svg width="52" height="52" viewBox="0 0 52 52" fill="currentColor" xmlns="http://www.w3.org/2000/svg">
    <path fill-rule="evenodd" clip-rule="evenodd" d="M4.41666 12C4.41666 7.81185 7.81183 4.41667 12 4.41667H26C26.9665 4.41667 27.75 3.63317 27.75 2.66667C27.75 1.70017 26.9665 0.916672 26 0.916672H12C5.87883 0.916672 0.916656 5.87885 0.916656 12V40C0.916656 46.1212 5.87883 51.0833 12 51.0833H40C46.1211 51.0833 51.0833 46.1212 51.0833 40V26C51.0833 25.0335 50.2998 24.25 49.3333 24.25C48.3668 24.25 47.5833 25.0335 47.5833 26V40C47.5833 44.1882 44.1882 47.5833 40 47.5833H12C7.81183 47.5833 4.41666 44.1882 4.41666 40V12ZM36.3111 4.24653C38.4176 2.14005 41.8329 2.14005 43.9393 4.24653L47.7535 8.06066C49.8599 10.1671 49.8599 13.5824 47.7535 15.6889L44.3717 19.0707C44.1063 18.9392 43.827 18.797 43.5373 18.6446C41.588 17.6183 39.2748 16.178 37.5485 14.4516C35.8221 12.7253 34.3817 10.4121 33.3555 8.46274C33.203 8.17309 33.0608 7.89375 32.9294 7.62824L36.3111 4.24653ZM35.0736 16.9265C37.1165 18.9694 39.7145 20.5772 41.7721 21.6703L28.4734 34.969C27.6482 35.7942 26.5775 36.3296 25.4221 36.4946L17.4125 37.6388C15.6325 37.8931 14.1069 36.3675 14.3612 34.5875L15.5054 26.5779C15.6704 25.4225 16.2058 24.3518 17.031 23.5266L30.3297 10.2279C31.4228 12.2855 33.0307 14.8836 35.0736 16.9265Z" fill="currentColor"/>
</svg>
