<svg xmlns="http://www.w3.org/2000/svg" width="17" height="18" viewBox="0 0 17 18" fill="none">
  <path fill-rule="evenodd" clip-rule="evenodd" d="M9.4375 1.5C9.4375 0.982233 9.01777 0.5625 8.5 0.5625C7.98223 0.5625 7.5625 0.982233 7.5625 1.5V8.0625H1C0.482232 8.0625 0.0625 8.48223 0.0625 9C0.0625 9.51777 0.482232 9.9375 1 9.9375H7.5625V16.5C7.5625 17.0178 7.98223 17.4375 8.5 17.4375C9.01777 17.4375 9.4375 17.0178 9.4375 16.5V9.9375H16C16.5178 9.9375 16.9375 9.51777 16.9375 9C16.9375 8.48223 16.5178 8.0625 16 8.0625H9.4375V1.5Z" fill="white"/>
</svg>