<svg width="56" height="56" viewBox="0 0 56 56" fill="currentColor" xmlns="http://www.w3.org/2000/svg">
<path fill-rule="evenodd" clip-rule="evenodd" d="M28 25.6667C31.866 25.6667 35 22.5327 35 18.6667C35 14.8007 31.866 11.6667 28 11.6667C24.134 11.6667 21 14.8007 21 18.6667C21 22.5327 24.134 25.6667 28 25.6667ZM28 44.334C35.7319 44.334 42 41.2 42 37.334C42 33.468 35.7319 30.334 28 30.334C20.268 30.334 14 33.468 14 37.334C14 41.2 20.268 44.334 28 44.334ZM14.8905 30.3778C9.12793 30.7331 4.66663 33.1895 4.66663 36.1669C4.66663 38.6215 7.69877 40.722 11.9924 41.5831C11.033 40.2839 10.5 38.8461 10.5 37.3336C10.5 34.6656 12.1584 32.2301 14.8905 30.3778ZM45.5001 37.3336C45.5001 38.8461 44.9671 40.2839 44.0076 41.5831C48.3013 40.722 51.3334 38.6215 51.3334 36.1669C51.3334 33.1895 46.8721 30.7331 41.1096 30.3778C43.8417 32.2301 45.5001 34.6656 45.5001 37.3336ZM36.676 24.5832C37.8269 22.8986 38.5 20.8616 38.5 18.6673C38.5 17.9392 38.4259 17.2284 38.2848 16.542C38.7214 16.4068 39.1855 16.334 39.6666 16.334C42.244 16.334 44.3333 18.4233 44.3333 21.0007C44.3333 23.578 42.244 25.6673 39.6666 25.6673C38.5287 25.6673 37.4859 25.26 36.676 24.5832ZM16.3334 16.334C16.8145 16.334 17.2786 16.4068 17.7153 16.542C17.5742 17.2284 17.5 17.9392 17.5 18.6673C17.5 20.8616 18.1731 22.8986 19.324 24.5832C18.5142 25.26 17.4713 25.6673 16.3334 25.6673C13.756 25.6673 11.6667 23.578 11.6667 21.0007C11.6667 18.4233 13.756 16.334 16.3334 16.334Z" fill="currentColor"/>
</svg>
