<svg xmlns="http://www.w3.org/2000/svg" width="30" height="34" viewBox="0 0 30 34" fill="none">
  <path fill-rule="evenodd" clip-rule="evenodd" d="M0 7.00016V27.0002C0 30.6821 2.98477 33.6668 6.66667 33.6668H13.9052C14.4182 33.6668 14.925 33.6077 15.4167 33.4933V27.0002C15.4167 22.6279 18.9611 19.0835 23.3333 19.0835H29.8264C29.9409 18.5919 30 18.085 30 17.5721V7.00016C30 3.31826 27.0152 0.333496 23.3333 0.333496H6.66667C2.98477 0.333496 0 3.31826 0 7.00016ZM18.6193 31.7142C18.3983 31.9352 18.1634 32.139 17.9167 32.3249L17.9167 27.0002C17.9167 24.0086 20.3418 21.5835 23.3333 21.5835H28.6581C28.4722 21.8302 28.2684 22.0651 28.0474 22.2861L18.6193 31.7142ZM13.5269 10.241C13.5976 10.1702 13.6722 10.1056 13.75 10.0471V17.0001C13.75 17.6904 14.3096 18.2501 15 18.2501C15.6904 18.2501 16.25 17.6904 16.25 17.0001V10.0471C16.3278 10.1056 16.4024 10.1702 16.4731 10.241L19.1161 12.8839C19.6043 13.3721 20.3957 13.3721 20.8839 12.8839C21.372 12.3958 21.372 11.6043 20.8839 11.1162L18.2409 8.4732C16.451 6.6833 13.549 6.6833 11.7591 8.47321L9.11612 11.1162C8.62796 11.6043 8.62796 12.3958 9.11612 12.8839C9.60427 13.3721 10.3957 13.3721 10.8839 12.8839L13.5269 10.241Z" fill="#669DFF"/>
</svg>